<mxfile host="app.diagrams.net" modified="2021-05-28T08:03:16.543Z" agent="5.0 (Windows NT 10.0; Win64; x64) AppleWebKit/537.36 (KHTML, like Gecko) Chrome/90.0.4430.72 YaBrowser/21.5.1.330 Yowser/2.5 Safari/537.36" etag="m5r1h74mEz1zQwx1Nh9R" version="14.7.2" type="github">
  <diagram id="03FjcUnf6Z8f4p4BtVnu" name="Page-1">
    <mxGraphModel dx="1982" dy="673" grid="1" gridSize="10" guides="1" tooltips="1" connect="1" arrows="1" fold="1" page="1" pageScale="1" pageWidth="827" pageHeight="1169" math="0" shadow="0">
      <root>
        <mxCell id="0" />
        <mxCell id="1" parent="0" />
        <mxCell id="qCNo12KEY4N09CPlPDrK-1" value="Турнир" style="rounded=0;whiteSpace=wrap;html=1;" parent="1" vertex="1">
          <mxGeometry x="-70" y="410" width="120" height="60" as="geometry" />
        </mxCell>
        <mxCell id="qCNo12KEY4N09CPlPDrK-2" value="" style="endArrow=none;html=1;exitX=1;exitY=0.5;exitDx=0;exitDy=0;" parent="1" source="qCNo12KEY4N09CPlPDrK-1" edge="1">
          <mxGeometry width="50" height="50" relative="1" as="geometry">
            <mxPoint x="200" y="480" as="sourcePoint" />
            <mxPoint x="240" y="440" as="targetPoint" />
          </mxGeometry>
        </mxCell>
        <mxCell id="qCNo12KEY4N09CPlPDrK-3" value="Матч" style="rounded=0;whiteSpace=wrap;html=1;" parent="1" vertex="1">
          <mxGeometry x="240" y="410" width="120" height="60" as="geometry" />
        </mxCell>
        <mxCell id="qCNo12KEY4N09CPlPDrK-4" value="" style="endArrow=none;html=1;entryX=0;entryY=0.25;entryDx=0;entryDy=0;" parent="1" target="qCNo12KEY4N09CPlPDrK-3" edge="1">
          <mxGeometry width="50" height="50" relative="1" as="geometry">
            <mxPoint x="200" y="440" as="sourcePoint" />
            <mxPoint x="260" y="400" as="targetPoint" />
          </mxGeometry>
        </mxCell>
        <mxCell id="qCNo12KEY4N09CPlPDrK-5" value="" style="endArrow=none;html=1;entryX=0;entryY=0.75;entryDx=0;entryDy=0;" parent="1" target="qCNo12KEY4N09CPlPDrK-3" edge="1">
          <mxGeometry width="50" height="50" relative="1" as="geometry">
            <mxPoint x="200" y="440" as="sourcePoint" />
            <mxPoint x="250" y="435" as="targetPoint" />
          </mxGeometry>
        </mxCell>
        <mxCell id="qCNo12KEY4N09CPlPDrK-6" value="" style="endArrow=none;html=1;exitX=1;exitY=0.5;exitDx=0;exitDy=0;" parent="1" edge="1">
          <mxGeometry width="50" height="50" relative="1" as="geometry">
            <mxPoint x="360" y="440" as="sourcePoint" />
            <mxPoint x="470" y="440" as="targetPoint" />
          </mxGeometry>
        </mxCell>
        <mxCell id="qCNo12KEY4N09CPlPDrK-7" value="Команда" style="rounded=0;whiteSpace=wrap;html=1;" parent="1" vertex="1">
          <mxGeometry x="470" y="410" width="120" height="60" as="geometry" />
        </mxCell>
        <mxCell id="qCNo12KEY4N09CPlPDrK-8" value="" style="endArrow=none;html=1;entryX=0;entryY=0.25;entryDx=0;entryDy=0;" parent="1" target="qCNo12KEY4N09CPlPDrK-7" edge="1">
          <mxGeometry width="50" height="50" relative="1" as="geometry">
            <mxPoint x="430" y="440" as="sourcePoint" />
            <mxPoint x="490" y="400" as="targetPoint" />
          </mxGeometry>
        </mxCell>
        <mxCell id="qCNo12KEY4N09CPlPDrK-9" value="" style="endArrow=none;html=1;entryX=0;entryY=0.75;entryDx=0;entryDy=0;" parent="1" target="qCNo12KEY4N09CPlPDrK-7" edge="1">
          <mxGeometry width="50" height="50" relative="1" as="geometry">
            <mxPoint x="430" y="440" as="sourcePoint" />
            <mxPoint x="480" y="435" as="targetPoint" />
          </mxGeometry>
        </mxCell>
        <mxCell id="qCNo12KEY4N09CPlPDrK-10" value="" style="endArrow=none;html=1;entryX=1;entryY=0.25;entryDx=0;entryDy=0;" parent="1" target="qCNo12KEY4N09CPlPDrK-3" edge="1">
          <mxGeometry width="50" height="50" relative="1" as="geometry">
            <mxPoint x="400" y="440" as="sourcePoint" />
            <mxPoint x="480" y="435" as="targetPoint" />
          </mxGeometry>
        </mxCell>
        <mxCell id="qCNo12KEY4N09CPlPDrK-11" value="" style="endArrow=none;html=1;entryX=1;entryY=0.75;entryDx=0;entryDy=0;" parent="1" target="qCNo12KEY4N09CPlPDrK-3" edge="1">
          <mxGeometry width="50" height="50" relative="1" as="geometry">
            <mxPoint x="400" y="440" as="sourcePoint" />
            <mxPoint x="480" y="465" as="targetPoint" />
          </mxGeometry>
        </mxCell>
        <mxCell id="qCNo12KEY4N09CPlPDrK-12" value="Статистика на карте" style="rounded=0;whiteSpace=wrap;html=1;" parent="1" vertex="1">
          <mxGeometry x="720" y="410" width="120" height="60" as="geometry" />
        </mxCell>
        <mxCell id="qCNo12KEY4N09CPlPDrK-13" value="" style="endArrow=none;html=1;entryX=0;entryY=0.25;entryDx=0;entryDy=0;" parent="1" target="qCNo12KEY4N09CPlPDrK-12" edge="1">
          <mxGeometry width="50" height="50" relative="1" as="geometry">
            <mxPoint x="680" y="440" as="sourcePoint" />
            <mxPoint x="740" y="400" as="targetPoint" />
          </mxGeometry>
        </mxCell>
        <mxCell id="qCNo12KEY4N09CPlPDrK-14" value="" style="endArrow=none;html=1;entryX=0;entryY=0.75;entryDx=0;entryDy=0;" parent="1" target="qCNo12KEY4N09CPlPDrK-12" edge="1">
          <mxGeometry width="50" height="50" relative="1" as="geometry">
            <mxPoint x="680" y="440" as="sourcePoint" />
            <mxPoint x="730" y="435" as="targetPoint" />
          </mxGeometry>
        </mxCell>
        <mxCell id="qCNo12KEY4N09CPlPDrK-15" value="" style="endArrow=none;html=1;exitX=1;exitY=0.5;exitDx=0;exitDy=0;entryX=0;entryY=0.5;entryDx=0;entryDy=0;" parent="1" source="qCNo12KEY4N09CPlPDrK-7" target="qCNo12KEY4N09CPlPDrK-12" edge="1">
          <mxGeometry width="50" height="50" relative="1" as="geometry">
            <mxPoint x="370" y="450" as="sourcePoint" />
            <mxPoint x="480" y="450" as="targetPoint" />
          </mxGeometry>
        </mxCell>
        <mxCell id="qCNo12KEY4N09CPlPDrK-20" value="Название" style="ellipse;whiteSpace=wrap;html=1;" parent="1" vertex="1">
          <mxGeometry x="-70" y="310" width="120" height="40" as="geometry" />
        </mxCell>
        <mxCell id="qCNo12KEY4N09CPlPDrK-21" value="" style="endArrow=none;html=1;exitX=0.5;exitY=0;exitDx=0;exitDy=0;entryX=0.5;entryY=1;entryDx=0;entryDy=0;" parent="1" source="qCNo12KEY4N09CPlPDrK-1" target="qCNo12KEY4N09CPlPDrK-20" edge="1">
          <mxGeometry width="50" height="50" relative="1" as="geometry">
            <mxPoint x="-20" y="430" as="sourcePoint" />
            <mxPoint x="30" y="380" as="targetPoint" />
          </mxGeometry>
        </mxCell>
        <mxCell id="qCNo12KEY4N09CPlPDrK-22" value="Призовой фонд" style="ellipse;whiteSpace=wrap;html=1;" parent="1" vertex="1">
          <mxGeometry x="50" y="330" width="100" height="50" as="geometry" />
        </mxCell>
        <mxCell id="qCNo12KEY4N09CPlPDrK-23" value="" style="endArrow=none;html=1;exitX=0.75;exitY=0;exitDx=0;exitDy=0;entryX=0;entryY=1;entryDx=0;entryDy=0;" parent="1" source="qCNo12KEY4N09CPlPDrK-1" edge="1">
          <mxGeometry width="50" height="50" relative="1" as="geometry">
            <mxPoint x="130" y="420" as="sourcePoint" />
            <mxPoint x="64.64466094067257" y="372.6776695296637" as="targetPoint" />
          </mxGeometry>
        </mxCell>
        <mxCell id="qCNo12KEY4N09CPlPDrK-24" value="Кол-во команд" style="ellipse;whiteSpace=wrap;html=1;" parent="1" vertex="1">
          <mxGeometry x="-20" y="510" width="100" height="50" as="geometry" />
        </mxCell>
        <mxCell id="qCNo12KEY4N09CPlPDrK-27" value="" style="endArrow=none;html=1;exitX=0.5;exitY=0;exitDx=0;exitDy=0;entryX=0.5;entryY=1;entryDx=0;entryDy=0;" parent="1" source="qCNo12KEY4N09CPlPDrK-24" target="qCNo12KEY4N09CPlPDrK-1" edge="1">
          <mxGeometry width="50" height="50" relative="1" as="geometry">
            <mxPoint x="-90" y="520" as="sourcePoint" />
            <mxPoint x="-30" y="480" as="targetPoint" />
          </mxGeometry>
        </mxCell>
        <mxCell id="qCNo12KEY4N09CPlPDrK-32" value="Формат матча" style="ellipse;whiteSpace=wrap;html=1;" parent="1" vertex="1">
          <mxGeometry x="190" y="210" width="100" height="50" as="geometry" />
        </mxCell>
        <mxCell id="qCNo12KEY4N09CPlPDrK-33" value="Url матча" style="ellipse;whiteSpace=wrap;html=1;" parent="1" vertex="1">
          <mxGeometry x="250" y="250" width="100" height="50" as="geometry" />
        </mxCell>
        <mxCell id="qCNo12KEY4N09CPlPDrK-34" value="Url логотипа" style="ellipse;whiteSpace=wrap;html=1;" parent="1" vertex="1">
          <mxGeometry x="490" y="510" width="100" height="50" as="geometry" />
        </mxCell>
        <mxCell id="qCNo12KEY4N09CPlPDrK-35" value="" style="endArrow=none;html=1;exitX=0.5;exitY=0;exitDx=0;exitDy=0;entryX=0.5;entryY=1;entryDx=0;entryDy=0;" parent="1" source="qCNo12KEY4N09CPlPDrK-3" target="qCNo12KEY4N09CPlPDrK-32" edge="1">
          <mxGeometry width="50" height="50" relative="1" as="geometry">
            <mxPoint x="330" y="410" as="sourcePoint" />
            <mxPoint x="380" y="360" as="targetPoint" />
          </mxGeometry>
        </mxCell>
        <mxCell id="qCNo12KEY4N09CPlPDrK-36" value="" style="endArrow=none;html=1;entryX=0;entryY=1;entryDx=0;entryDy=0;exitX=0.5;exitY=0;exitDx=0;exitDy=0;" parent="1" source="qCNo12KEY4N09CPlPDrK-3" target="qCNo12KEY4N09CPlPDrK-33" edge="1">
          <mxGeometry width="50" height="50" relative="1" as="geometry">
            <mxPoint x="300" y="400" as="sourcePoint" />
            <mxPoint x="330" y="360" as="targetPoint" />
          </mxGeometry>
        </mxCell>
        <mxCell id="qCNo12KEY4N09CPlPDrK-37" value="" style="endArrow=none;html=1;exitX=0.5;exitY=1;exitDx=0;exitDy=0;entryX=0.5;entryY=0;entryDx=0;entryDy=0;" parent="1" source="qCNo12KEY4N09CPlPDrK-7" target="qCNo12KEY4N09CPlPDrK-34" edge="1">
          <mxGeometry width="50" height="50" relative="1" as="geometry">
            <mxPoint x="680" y="620" as="sourcePoint" />
            <mxPoint x="720" y="560" as="targetPoint" />
          </mxGeometry>
        </mxCell>
        <mxCell id="qCNo12KEY4N09CPlPDrK-38" value="Название" style="ellipse;whiteSpace=wrap;html=1;" parent="1" vertex="1">
          <mxGeometry x="500" y="305" width="100" height="50" as="geometry" />
        </mxCell>
        <mxCell id="qCNo12KEY4N09CPlPDrK-39" value="" style="endArrow=none;html=1;exitX=0.5;exitY=0;exitDx=0;exitDy=0;entryX=0.5;entryY=1;entryDx=0;entryDy=0;" parent="1" source="qCNo12KEY4N09CPlPDrK-7" target="qCNo12KEY4N09CPlPDrK-38" edge="1">
          <mxGeometry width="50" height="50" relative="1" as="geometry">
            <mxPoint x="560" y="430" as="sourcePoint" />
            <mxPoint x="610" y="380" as="targetPoint" />
          </mxGeometry>
        </mxCell>
        <mxCell id="qCNo12KEY4N09CPlPDrK-40" value="Рейтинг" style="ellipse;whiteSpace=wrap;html=1;" parent="1" vertex="1">
          <mxGeometry x="750" y="310" width="100" height="50" as="geometry" />
        </mxCell>
        <mxCell id="qCNo12KEY4N09CPlPDrK-41" value="" style="endArrow=none;html=1;exitX=0.5;exitY=0;exitDx=0;exitDy=0;entryX=0.5;entryY=1;entryDx=0;entryDy=0;" parent="1" target="qCNo12KEY4N09CPlPDrK-40" edge="1">
          <mxGeometry width="50" height="50" relative="1" as="geometry">
            <mxPoint x="790" y="410" as="sourcePoint" />
            <mxPoint x="870" y="380" as="targetPoint" />
          </mxGeometry>
        </mxCell>
        <mxCell id="qCNo12KEY4N09CPlPDrK-42" value="Имя" style="ellipse;whiteSpace=wrap;html=1;" parent="1" vertex="1">
          <mxGeometry x="880" y="500" width="100" height="50" as="geometry" />
        </mxCell>
        <mxCell id="qCNo12KEY4N09CPlPDrK-43" value="" style="endArrow=none;html=1;exitX=0.5;exitY=1;exitDx=0;exitDy=0;entryX=0.5;entryY=0;entryDx=0;entryDy=0;" parent="1" target="qCNo12KEY4N09CPlPDrK-42" edge="1">
          <mxGeometry width="50" height="50" relative="1" as="geometry">
            <mxPoint x="790" y="470" as="sourcePoint" />
            <mxPoint x="980" y="560" as="targetPoint" />
          </mxGeometry>
        </mxCell>
        <mxCell id="qCNo12KEY4N09CPlPDrK-52" value="&lt;font style=&quot;font-size: 20px&quot;&gt;#Id&lt;br&gt;*Кол-во команд&lt;br&gt;*Название&lt;br&gt;*Призовой фонд&lt;br&gt;&lt;/font&gt;" style="rounded=1;whiteSpace=wrap;html=1;align=left;" parent="1" vertex="1">
          <mxGeometry x="90" y="1040" width="210" height="210" as="geometry" />
        </mxCell>
        <mxCell id="qCNo12KEY4N09CPlPDrK-53" value="" style="endArrow=none;html=1;exitX=0;exitY=0.25;exitDx=0;exitDy=0;entryX=1;entryY=0.25;entryDx=0;entryDy=0;" parent="1" source="qCNo12KEY4N09CPlPDrK-52" target="qCNo12KEY4N09CPlPDrK-52" edge="1">
          <mxGeometry width="50" height="50" relative="1" as="geometry">
            <mxPoint x="170" y="1170" as="sourcePoint" />
            <mxPoint x="220" y="1120" as="targetPoint" />
          </mxGeometry>
        </mxCell>
        <mxCell id="qCNo12KEY4N09CPlPDrK-54" value="&lt;span style=&quot;font-size: 20px&quot;&gt;Турнир&lt;/span&gt;" style="text;html=1;strokeColor=none;fillColor=none;align=center;verticalAlign=middle;whiteSpace=wrap;rounded=0;" parent="1" vertex="1">
          <mxGeometry x="90" y="1040" width="210" height="50" as="geometry" />
        </mxCell>
        <mxCell id="qCNo12KEY4N09CPlPDrK-56" value="&lt;font style=&quot;font-size: 20px&quot;&gt;#Id&lt;br&gt;*Доля турнира&lt;br&gt;*Лучший из&lt;br&gt;&lt;/font&gt;" style="rounded=1;whiteSpace=wrap;html=1;align=left;" parent="1" vertex="1">
          <mxGeometry x="450" y="1030" width="210" height="210" as="geometry" />
        </mxCell>
        <mxCell id="qCNo12KEY4N09CPlPDrK-57" value="" style="endArrow=none;html=1;exitX=0;exitY=0.25;exitDx=0;exitDy=0;entryX=1;entryY=0.25;entryDx=0;entryDy=0;" parent="1" source="qCNo12KEY4N09CPlPDrK-56" target="qCNo12KEY4N09CPlPDrK-56" edge="1">
          <mxGeometry width="50" height="50" relative="1" as="geometry">
            <mxPoint x="530" y="1160" as="sourcePoint" />
            <mxPoint x="580" y="1110" as="targetPoint" />
          </mxGeometry>
        </mxCell>
        <mxCell id="qCNo12KEY4N09CPlPDrK-58" value="&lt;span style=&quot;font-size: 20px&quot;&gt;Матч&lt;/span&gt;" style="text;html=1;strokeColor=none;fillColor=none;align=center;verticalAlign=middle;whiteSpace=wrap;rounded=0;" parent="1" vertex="1">
          <mxGeometry x="450" y="1030" width="210" height="50" as="geometry" />
        </mxCell>
        <mxCell id="qCNo12KEY4N09CPlPDrK-59" value="" style="endArrow=none;html=1;exitX=1;exitY=0.5;exitDx=0;exitDy=0;" parent="1" source="qCNo12KEY4N09CPlPDrK-52" edge="1">
          <mxGeometry width="50" height="50" relative="1" as="geometry">
            <mxPoint x="340" y="1145" as="sourcePoint" />
            <mxPoint x="450.0000000000002" y="1145" as="targetPoint" />
          </mxGeometry>
        </mxCell>
        <mxCell id="qCNo12KEY4N09CPlPDrK-60" value="" style="endArrow=none;html=1;entryX=0;entryY=0.25;entryDx=0;entryDy=0;" parent="1" edge="1">
          <mxGeometry width="50" height="50" relative="1" as="geometry">
            <mxPoint x="410.0000000000002" y="1145" as="sourcePoint" />
            <mxPoint x="450.0000000000002" y="1130" as="targetPoint" />
          </mxGeometry>
        </mxCell>
        <mxCell id="qCNo12KEY4N09CPlPDrK-61" value="" style="endArrow=none;html=1;entryX=0;entryY=0.75;entryDx=0;entryDy=0;" parent="1" edge="1">
          <mxGeometry width="50" height="50" relative="1" as="geometry">
            <mxPoint x="410.0000000000002" y="1145" as="sourcePoint" />
            <mxPoint x="450.0000000000002" y="1160" as="targetPoint" />
          </mxGeometry>
        </mxCell>
        <mxCell id="qCNo12KEY4N09CPlPDrK-62" value="&lt;font style=&quot;font-size: 20px&quot;&gt;#Id&lt;br&gt;*Название&lt;br&gt;*Рейтинг&lt;br&gt;&lt;/font&gt;" style="rounded=1;whiteSpace=wrap;html=1;align=left;" parent="1" vertex="1">
          <mxGeometry x="770" y="1030" width="210" height="210" as="geometry" />
        </mxCell>
        <mxCell id="qCNo12KEY4N09CPlPDrK-63" value="" style="endArrow=none;html=1;exitX=0;exitY=0.25;exitDx=0;exitDy=0;entryX=1;entryY=0.25;entryDx=0;entryDy=0;" parent="1" source="qCNo12KEY4N09CPlPDrK-62" target="qCNo12KEY4N09CPlPDrK-62" edge="1">
          <mxGeometry width="50" height="50" relative="1" as="geometry">
            <mxPoint x="850" y="1160" as="sourcePoint" />
            <mxPoint x="900" y="1110" as="targetPoint" />
          </mxGeometry>
        </mxCell>
        <mxCell id="qCNo12KEY4N09CPlPDrK-64" value="&lt;span style=&quot;font-size: 20px&quot;&gt;Команды&lt;/span&gt;" style="text;html=1;strokeColor=none;fillColor=none;align=center;verticalAlign=middle;whiteSpace=wrap;rounded=0;" parent="1" vertex="1">
          <mxGeometry x="770" y="1030" width="210" height="50" as="geometry" />
        </mxCell>
        <mxCell id="qCNo12KEY4N09CPlPDrK-65" value="" style="endArrow=none;html=1;exitX=1;exitY=0.5;exitDx=0;exitDy=0;" parent="1" edge="1">
          <mxGeometry width="50" height="50" relative="1" as="geometry">
            <mxPoint x="660" y="1135" as="sourcePoint" />
            <mxPoint x="770" y="1135" as="targetPoint" />
          </mxGeometry>
        </mxCell>
        <mxCell id="qCNo12KEY4N09CPlPDrK-66" value="" style="endArrow=none;html=1;entryX=0;entryY=0.25;entryDx=0;entryDy=0;" parent="1" edge="1">
          <mxGeometry width="50" height="50" relative="1" as="geometry">
            <mxPoint x="730" y="1135" as="sourcePoint" />
            <mxPoint x="770" y="1120" as="targetPoint" />
          </mxGeometry>
        </mxCell>
        <mxCell id="qCNo12KEY4N09CPlPDrK-67" value="" style="endArrow=none;html=1;entryX=0;entryY=0.75;entryDx=0;entryDy=0;" parent="1" edge="1">
          <mxGeometry width="50" height="50" relative="1" as="geometry">
            <mxPoint x="730" y="1135" as="sourcePoint" />
            <mxPoint x="770" y="1150" as="targetPoint" />
          </mxGeometry>
        </mxCell>
        <mxCell id="qCNo12KEY4N09CPlPDrK-68" value="" style="endArrow=none;html=1;entryX=1;entryY=0.25;entryDx=0;entryDy=0;" parent="1" edge="1">
          <mxGeometry width="50" height="50" relative="1" as="geometry">
            <mxPoint x="700" y="1135" as="sourcePoint" />
            <mxPoint x="660" y="1120" as="targetPoint" />
          </mxGeometry>
        </mxCell>
        <mxCell id="qCNo12KEY4N09CPlPDrK-69" value="" style="endArrow=none;html=1;entryX=1;entryY=0.75;entryDx=0;entryDy=0;" parent="1" edge="1">
          <mxGeometry width="50" height="50" relative="1" as="geometry">
            <mxPoint x="700" y="1135" as="sourcePoint" />
            <mxPoint x="660" y="1150" as="targetPoint" />
          </mxGeometry>
        </mxCell>
        <mxCell id="qCNo12KEY4N09CPlPDrK-70" value="&lt;font style=&quot;font-size: 20px&quot;&gt;#Id&lt;br&gt;*Доля турнира&lt;br&gt;*Лучший из&lt;br&gt;&lt;/font&gt;" style="rounded=1;whiteSpace=wrap;html=1;align=left;" parent="1" vertex="1">
          <mxGeometry x="750" y="1725" width="210" height="210" as="geometry" />
        </mxCell>
        <mxCell id="qCNo12KEY4N09CPlPDrK-77" value="&lt;font style=&quot;font-size: 20px&quot;&gt;#Id&lt;br&gt;*Имя&lt;br&gt;*Рейтинг&lt;br&gt;&lt;/font&gt;" style="rounded=1;whiteSpace=wrap;html=1;align=left;" parent="1" vertex="1">
          <mxGeometry x="1110" y="1020" width="210" height="210" as="geometry" />
        </mxCell>
        <mxCell id="qCNo12KEY4N09CPlPDrK-78" value="" style="endArrow=none;html=1;exitX=0;exitY=0.25;exitDx=0;exitDy=0;entryX=1;entryY=0.25;entryDx=0;entryDy=0;" parent="1" source="qCNo12KEY4N09CPlPDrK-77" target="qCNo12KEY4N09CPlPDrK-77" edge="1">
          <mxGeometry width="50" height="50" relative="1" as="geometry">
            <mxPoint x="1190" y="1150" as="sourcePoint" />
            <mxPoint x="1240" y="1100" as="targetPoint" />
          </mxGeometry>
        </mxCell>
        <mxCell id="qCNo12KEY4N09CPlPDrK-79" value="&lt;span style=&quot;font-size: 20px&quot;&gt;Игроки&lt;/span&gt;" style="text;html=1;strokeColor=none;fillColor=none;align=center;verticalAlign=middle;whiteSpace=wrap;rounded=0;" parent="1" vertex="1">
          <mxGeometry x="1110" y="1020" width="210" height="50" as="geometry" />
        </mxCell>
        <mxCell id="qCNo12KEY4N09CPlPDrK-80" value="" style="endArrow=none;html=1;entryX=0;entryY=0.25;entryDx=0;entryDy=0;" parent="1" edge="1">
          <mxGeometry width="50" height="50" relative="1" as="geometry">
            <mxPoint x="1070" y="1135" as="sourcePoint" />
            <mxPoint x="1110" y="1120" as="targetPoint" />
          </mxGeometry>
        </mxCell>
        <mxCell id="qCNo12KEY4N09CPlPDrK-81" value="" style="endArrow=none;html=1;entryX=0;entryY=0.75;entryDx=0;entryDy=0;" parent="1" edge="1">
          <mxGeometry width="50" height="50" relative="1" as="geometry">
            <mxPoint x="1070" y="1135" as="sourcePoint" />
            <mxPoint x="1110" y="1150" as="targetPoint" />
          </mxGeometry>
        </mxCell>
        <mxCell id="qCNo12KEY4N09CPlPDrK-82" value="" style="endArrow=none;html=1;exitX=1;exitY=0.5;exitDx=0;exitDy=0;entryX=0;entryY=0.5;entryDx=0;entryDy=0;" parent="1" edge="1">
          <mxGeometry width="50" height="50" relative="1" as="geometry">
            <mxPoint x="980" y="1135" as="sourcePoint" />
            <mxPoint x="1110" y="1135" as="targetPoint" />
          </mxGeometry>
        </mxCell>
        <mxCell id="qCNo12KEY4N09CPlPDrK-83" value="&lt;font style=&quot;font-size: 20px&quot;&gt;#Id&lt;br&gt;*Логин&lt;br&gt;*Пароль&lt;br&gt;&lt;/font&gt;" style="rounded=1;whiteSpace=wrap;html=1;align=left;" parent="1" vertex="1">
          <mxGeometry x="460" y="1340" width="210" height="210" as="geometry" />
        </mxCell>
        <mxCell id="qCNo12KEY4N09CPlPDrK-84" value="" style="endArrow=none;html=1;exitX=0;exitY=0.25;exitDx=0;exitDy=0;entryX=1;entryY=0.25;entryDx=0;entryDy=0;" parent="1" source="qCNo12KEY4N09CPlPDrK-83" target="qCNo12KEY4N09CPlPDrK-83" edge="1">
          <mxGeometry width="50" height="50" relative="1" as="geometry">
            <mxPoint x="540" y="1470" as="sourcePoint" />
            <mxPoint x="590" y="1420" as="targetPoint" />
          </mxGeometry>
        </mxCell>
        <mxCell id="qCNo12KEY4N09CPlPDrK-85" value="&lt;span style=&quot;font-size: 20px&quot;&gt;Пользователь&lt;/span&gt;" style="text;html=1;strokeColor=none;fillColor=none;align=center;verticalAlign=middle;whiteSpace=wrap;rounded=0;" parent="1" vertex="1">
          <mxGeometry x="460" y="1340" width="210" height="50" as="geometry" />
        </mxCell>
        <mxCell id="qCNo12KEY4N09CPlPDrK-86" value="&lt;font style=&quot;font-size: 20px&quot;&gt;#Id&lt;br&gt;*Доля турнира&lt;br&gt;*Лучший из&lt;br&gt;&lt;/font&gt;" style="rounded=1;whiteSpace=wrap;html=1;align=left;" parent="1" vertex="1">
          <mxGeometry x="760" y="2035" width="210" height="210" as="geometry" />
        </mxCell>
        <mxCell id="qCNo12KEY4N09CPlPDrK-87" value="&lt;font style=&quot;font-size: 20px&quot;&gt;#Id&lt;br&gt;*соотношение побед поражений&lt;br&gt;*прибыль/убыток&lt;br&gt;&lt;/font&gt;" style="rounded=1;whiteSpace=wrap;html=1;align=left;" parent="1" vertex="1">
          <mxGeometry x="460" y="1649" width="210" height="210" as="geometry" />
        </mxCell>
        <mxCell id="qCNo12KEY4N09CPlPDrK-88" value="" style="endArrow=none;html=1;exitX=0;exitY=0.25;exitDx=0;exitDy=0;entryX=1;entryY=0.25;entryDx=0;entryDy=0;" parent="1" source="qCNo12KEY4N09CPlPDrK-87" target="qCNo12KEY4N09CPlPDrK-87" edge="1">
          <mxGeometry width="50" height="50" relative="1" as="geometry">
            <mxPoint x="540" y="1779" as="sourcePoint" />
            <mxPoint x="590" y="1729" as="targetPoint" />
          </mxGeometry>
        </mxCell>
        <mxCell id="qCNo12KEY4N09CPlPDrK-89" value="&lt;span style=&quot;font-size: 20px&quot;&gt;Стата&lt;/span&gt;" style="text;html=1;strokeColor=none;fillColor=none;align=center;verticalAlign=middle;whiteSpace=wrap;rounded=0;" parent="1" vertex="1">
          <mxGeometry x="460" y="1649" width="210" height="50" as="geometry" />
        </mxCell>
        <mxCell id="qCNo12KEY4N09CPlPDrK-90" value="" style="endArrow=none;html=1;entryX=0.5;entryY=1;entryDx=0;entryDy=0;" parent="1" edge="1">
          <mxGeometry width="50" height="50" relative="1" as="geometry">
            <mxPoint x="560" y="1340" as="sourcePoint" />
            <mxPoint x="560" y="1240" as="targetPoint" />
          </mxGeometry>
        </mxCell>
        <mxCell id="qCNo12KEY4N09CPlPDrK-91" value="" style="endArrow=none;html=1;exitX=0.25;exitY=1;exitDx=0;exitDy=0;" parent="1" edge="1">
          <mxGeometry width="50" height="50" relative="1" as="geometry">
            <mxPoint x="530" y="1240" as="sourcePoint" />
            <mxPoint x="560" y="1290" as="targetPoint" />
          </mxGeometry>
        </mxCell>
        <mxCell id="qCNo12KEY4N09CPlPDrK-92" value="" style="endArrow=none;html=1;entryX=0.75;entryY=1;entryDx=0;entryDy=0;" parent="1" edge="1">
          <mxGeometry width="50" height="50" relative="1" as="geometry">
            <mxPoint x="560" y="1290" as="sourcePoint" />
            <mxPoint x="590" y="1240" as="targetPoint" />
          </mxGeometry>
        </mxCell>
        <mxCell id="qCNo12KEY4N09CPlPDrK-93" value="" style="endArrow=none;html=1;entryX=0.5;entryY=1;entryDx=0;entryDy=0;exitX=0.5;exitY=0;exitDx=0;exitDy=0;" parent="1" source="qCNo12KEY4N09CPlPDrK-89" edge="1">
          <mxGeometry width="50" height="50" relative="1" as="geometry">
            <mxPoint x="570" y="1660" as="sourcePoint" />
            <mxPoint x="560" y="1550" as="targetPoint" />
          </mxGeometry>
        </mxCell>
        <mxCell id="qCNo12KEY4N09CPlPDrK-102" value="&lt;u&gt;Id&lt;/u&gt;" style="ellipse;whiteSpace=wrap;html=1;" parent="1" vertex="1">
          <mxGeometry x="-180" y="510" width="100" height="50" as="geometry" />
        </mxCell>
        <mxCell id="qCNo12KEY4N09CPlPDrK-103" value="" style="endArrow=none;html=1;entryX=0.25;entryY=1;entryDx=0;entryDy=0;exitX=1;exitY=0;exitDx=0;exitDy=0;" parent="1" source="qCNo12KEY4N09CPlPDrK-102" edge="1">
          <mxGeometry width="50" height="50" relative="1" as="geometry">
            <mxPoint x="9.999999999999773" y="590" as="sourcePoint" />
            <mxPoint x="-40.00000000000023" y="470" as="targetPoint" />
          </mxGeometry>
        </mxCell>
        <mxCell id="qCNo12KEY4N09CPlPDrK-104" value="&lt;u&gt;Id&lt;/u&gt;" style="ellipse;whiteSpace=wrap;html=1;" parent="1" vertex="1">
          <mxGeometry x="150" y="510" width="100" height="50" as="geometry" />
        </mxCell>
        <mxCell id="qCNo12KEY4N09CPlPDrK-105" value="" style="endArrow=none;html=1;entryX=0.25;entryY=1;entryDx=0;entryDy=0;exitX=1;exitY=0;exitDx=0;exitDy=0;" parent="1" source="qCNo12KEY4N09CPlPDrK-104" edge="1">
          <mxGeometry width="50" height="50" relative="1" as="geometry">
            <mxPoint x="339.9999999999998" y="590" as="sourcePoint" />
            <mxPoint x="290" y="470" as="targetPoint" />
          </mxGeometry>
        </mxCell>
        <mxCell id="qCNo12KEY4N09CPlPDrK-106" value="&lt;u&gt;Id&lt;/u&gt;" style="ellipse;whiteSpace=wrap;html=1;" parent="1" vertex="1">
          <mxGeometry x="370" y="510" width="100" height="50" as="geometry" />
        </mxCell>
        <mxCell id="qCNo12KEY4N09CPlPDrK-107" value="" style="endArrow=none;html=1;entryX=0.25;entryY=1;entryDx=0;entryDy=0;exitX=1;exitY=0;exitDx=0;exitDy=0;" parent="1" source="qCNo12KEY4N09CPlPDrK-106" edge="1">
          <mxGeometry width="50" height="50" relative="1" as="geometry">
            <mxPoint x="559.9999999999998" y="590" as="sourcePoint" />
            <mxPoint x="510" y="470" as="targetPoint" />
          </mxGeometry>
        </mxCell>
        <mxCell id="qCNo12KEY4N09CPlPDrK-108" value="&lt;u&gt;Id&lt;/u&gt;" style="ellipse;whiteSpace=wrap;html=1;" parent="1" vertex="1">
          <mxGeometry x="740" y="510" width="100" height="50" as="geometry" />
        </mxCell>
        <mxCell id="qCNo12KEY4N09CPlPDrK-109" value="" style="endArrow=none;html=1;entryX=0.25;entryY=1;entryDx=0;entryDy=0;exitX=1;exitY=0;exitDx=0;exitDy=0;" parent="1" source="qCNo12KEY4N09CPlPDrK-108" edge="1">
          <mxGeometry width="50" height="50" relative="1" as="geometry">
            <mxPoint x="819.9999999999998" y="590" as="sourcePoint" />
            <mxPoint x="770" y="470" as="targetPoint" />
          </mxGeometry>
        </mxCell>
        <mxCell id="0zwGo8pYZ29Yp3DjjryM-1" value="Название турнира" style="ellipse;whiteSpace=wrap;html=1;" vertex="1" parent="1">
          <mxGeometry x="364" y="240" width="100" height="50" as="geometry" />
        </mxCell>
        <mxCell id="0zwGo8pYZ29Yp3DjjryM-2" value="" style="endArrow=none;html=1;exitX=0.5;exitY=0;exitDx=0;exitDy=0;entryX=0;entryY=0.5;entryDx=0;entryDy=0;" edge="1" parent="1" source="qCNo12KEY4N09CPlPDrK-3" target="0zwGo8pYZ29Yp3DjjryM-1">
          <mxGeometry width="50" height="50" relative="1" as="geometry">
            <mxPoint x="370" y="450" as="sourcePoint" />
            <mxPoint x="480" y="450" as="targetPoint" />
          </mxGeometry>
        </mxCell>
        <mxCell id="0zwGo8pYZ29Yp3DjjryM-3" value="Время начала" style="ellipse;whiteSpace=wrap;html=1;" vertex="1" parent="1">
          <mxGeometry x="350" y="290" width="100" height="50" as="geometry" />
        </mxCell>
        <mxCell id="0zwGo8pYZ29Yp3DjjryM-4" value="" style="endArrow=none;html=1;exitX=0.5;exitY=0;exitDx=0;exitDy=0;entryX=0;entryY=0.5;entryDx=0;entryDy=0;" edge="1" parent="1" source="qCNo12KEY4N09CPlPDrK-3" target="0zwGo8pYZ29Yp3DjjryM-3">
          <mxGeometry width="50" height="50" relative="1" as="geometry">
            <mxPoint x="310" y="420" as="sourcePoint" />
            <mxPoint x="370" y="255" as="targetPoint" />
          </mxGeometry>
        </mxCell>
        <mxCell id="0zwGo8pYZ29Yp3DjjryM-5" value="Url логотипа" style="ellipse;whiteSpace=wrap;html=1;" vertex="1" parent="1">
          <mxGeometry x="145" y="260" width="100" height="50" as="geometry" />
        </mxCell>
        <mxCell id="0zwGo8pYZ29Yp3DjjryM-6" value="" style="endArrow=none;html=1;exitX=0.5;exitY=0;exitDx=0;exitDy=0;" edge="1" parent="1" source="qCNo12KEY4N09CPlPDrK-3" target="0zwGo8pYZ29Yp3DjjryM-5">
          <mxGeometry width="50" height="50" relative="1" as="geometry">
            <mxPoint x="310" y="420" as="sourcePoint" />
            <mxPoint x="234" y="240" as="targetPoint" />
          </mxGeometry>
        </mxCell>
        <mxCell id="0zwGo8pYZ29Yp3DjjryM-7" value="Id предполагаемого победителя" style="ellipse;whiteSpace=wrap;html=1;" vertex="1" parent="1">
          <mxGeometry x="150" y="350" width="100" height="50" as="geometry" />
        </mxCell>
        <mxCell id="0zwGo8pYZ29Yp3DjjryM-8" value="" style="endArrow=none;html=1;entryX=1;entryY=1;entryDx=0;entryDy=0;exitX=0.5;exitY=0;exitDx=0;exitDy=0;" edge="1" parent="1" source="qCNo12KEY4N09CPlPDrK-3" target="0zwGo8pYZ29Yp3DjjryM-7">
          <mxGeometry width="50" height="50" relative="1" as="geometry">
            <mxPoint x="300" y="410" as="sourcePoint" />
            <mxPoint x="250" y="270" as="targetPoint" />
          </mxGeometry>
        </mxCell>
      </root>
    </mxGraphModel>
  </diagram>
</mxfile>
